<svg version="1.0" xmlns="http://www.w3.org/2000/svg"
 width="20px" height="20px" viewBox="0 0 512.000000 512.000000"
 preserveAspectRatio="xMidYMid meet">

<g transform="translate(0.000000,512.000000) scale(0.100000,-0.100000)"
fill="#76D40A" stroke="none">
<path d="M2230 5105 c-459 -61 -882 -239 -1250 -523 -117 -91 -316 -287 -413
-407 -309 -383 -498 -835 -556 -1330 -16 -134 -13 -460 4 -605 92 -744 509
-1411 1140 -1826 339 -222 727 -361 1132 -404 165 -18 535 -8 689 19 566 97
1043 350 1439 763 360 374 596 852 680 1373 23 137 31 522 15 668 -52 479
-231 923 -528 1307 -91 117 -287 316 -407 413 -342 276 -744 459 -1186 537
-160 29 -592 37 -759 15z m660 -270 c510 -78 957 -308 1316 -676 122 -126 182
-201 276 -344 182 -277 302 -594 355 -935 24 -158 24 -482 0 -640 -103 -667
-468 -1240 -1022 -1602 -278 -183 -594 -302 -935 -355 -159 -24 -482 -24 -640
1 -511 79 -941 296 -1300 656 -361 360 -577 789 -657 1301 -24 157 -24 480 0
639 79 510 295 940 656 1301 396 396 880 620 1451 673 90 8 397 -4 500 -19z"/>
<path d="M1615 3066 c-66 -30 -101 -105 -76 -168 11 -30 900 -1050 946 -1086
38 -30 112 -30 151 0 15 12 234 258 486 546 479 547 479 548 463 621 -8 38
-64 88 -108 96 -71 14 -82 3 -506 -482 -221 -252 -406 -458 -411 -458 -5 0
-190 206 -411 458 -447 511 -447 512 -534 473z"/>
</g>
</svg>
