<?xml version="1.0" standalone="no"?>
<!DOCTYPE svg PUBLIC "-//W3C//DTD SVG 20010904//EN"
 "http://www.w3.org/TR/2001/REC-SVG-20010904/DTD/svg10.dtd">
<svg version="1.0" xmlns="http://www.w3.org/2000/svg"
 width="18px" height="18px" viewBox="0 0 512.000000 512.000000"
 preserveAspectRatio="xMidYMid meet">

<g transform="translate(0.000000,512.000000) scale(0.100000,-0.100000)"
fill="white" stroke="none">
<path d="M1275 5109 c-104 -15 -257 -59 -360 -103 -458 -194 -782 -590 -891
-1086 -18 -80 -19 -153 -19 -1360 0 -1207 1 -1280 19 -1360 65 -299 205 -557
415 -765 211 -210 463 -346 761 -411 80 -18 153 -19 1360 -19 1207 0 1280 1
1360 19 602 132 1044 574 1176 1176 18 80 19 153 19 1360 0 1207 -1 1280 -19
1360 -65 298 -201 550 -411 761 -203 205 -442 337 -744 412 -85 21 -98 21
-1346 23 -693 1 -1287 -2 -1320 -7z m756 -1115 c52 -15 75 -37 692 -652 457
-457 644 -649 659 -681 14 -29 21 -63 21 -101 0 -38 -7 -72 -21 -101 -15 -32
-202 -224 -659 -681 -617 -615 -640 -637 -692 -652 -67 -20 -75 -20 -140 0
-141 42 -216 206 -152 334 16 31 182 204 549 573 l527 527 -527 528 c-367 368
-533 541 -549 572 -62 125 6 284 143 331 66 23 81 23 149 3z"/>
</g>
</svg>
